<mxfile host="65bd71144e">
    <diagram id="avuX6tN8_coUhezxWiyo" name="Page-1">
        <mxGraphModel dx="853" dy="464" grid="1" gridSize="10" guides="1" tooltips="1" connect="1" arrows="0" fold="1" page="1" pageScale="1" pageWidth="827" pageHeight="1169" math="0" shadow="0">
            <root>
                <mxCell id="0"/>
                <mxCell id="1" parent="0"/>
                <mxCell id="2" value="&lt;b&gt;PROGETTO LARAVEL&lt;/b&gt;&lt;font color=&quot;#ffff00&quot;&gt;&lt;br&gt;&lt;/font&gt;" style="rounded=0;whiteSpace=wrap;html=1;" parent="1" vertex="1">
                    <mxGeometry x="250" y="40" width="390" height="40" as="geometry"/>
                </mxCell>
                <mxCell id="12" value="&lt;h1&gt;&lt;span style=&quot;font-size: 20px&quot;&gt;index&lt;/span&gt;&lt;/h1&gt;&lt;div&gt;&lt;div style=&quot;color: rgb(212 , 212 , 212) ; background-color: rgb(30 , 30 , 30) ; font-family: &amp;#34;consolas&amp;#34; , &amp;#34;courier new&amp;#34; , monospace ; font-size: 14px ; line-height: 19px&quot;&gt;&lt;div&gt;&lt;span style=&quot;color: #569cd6&quot;&gt;@extends&lt;/span&gt;(&lt;span style=&quot;color: #ce9178&quot;&gt;'layouts.admin'&lt;/span&gt;)&lt;/div&gt;&lt;div&gt;&lt;span style=&quot;color: #6a9955&quot;&gt;{{-- @dump($cars) --}}&lt;/span&gt;&lt;/div&gt;&lt;div&gt;&lt;span style=&quot;color: #569cd6&quot;&gt;@section&lt;/span&gt;(&lt;span style=&quot;color: #ce9178&quot;&gt;'content'&lt;/span&gt;)&lt;/div&gt;&lt;br&gt;&lt;div&gt;&lt;span style=&quot;color: #808080&quot;&gt;&amp;lt;&lt;/span&gt;&lt;span style=&quot;color: #569cd6&quot;&gt;a&lt;/span&gt; &lt;span style=&quot;color: #9cdcfe&quot;&gt;href&lt;/span&gt;=&lt;span style=&quot;color: #ce9178&quot;&gt;&quot;&lt;/span&gt;&lt;span style=&quot;color: #dcdcaa&quot;&gt;{{&lt;/span&gt;&lt;span style=&quot;color: #dcdcaa&quot;&gt;route&lt;/span&gt;&lt;span style=&quot;color: #ce9178&quot;&gt;('admin.cars.create')&lt;/span&gt;&lt;span style=&quot;color: #dcdcaa&quot;&gt;}}&lt;/span&gt;&lt;span style=&quot;color: #ce9178&quot;&gt;&quot;&lt;/span&gt; &lt;span style=&quot;color: #9cdcfe&quot;&gt;class&lt;/span&gt;=&lt;span style=&quot;color: #ce9178&quot;&gt;&quot;btn btn-prymary&quot;&lt;/span&gt;&lt;span style=&quot;color: #808080&quot;&gt;&amp;gt;&lt;/span&gt;Aggiungi nuova auto &lt;span style=&quot;color: #808080&quot;&gt;&amp;lt;/&lt;/span&gt;&lt;span style=&quot;color: #569cd6&quot;&gt;a&lt;/span&gt;&lt;span style=&quot;color: #808080&quot;&gt;&amp;gt;&lt;/span&gt;&lt;/div&gt;&lt;br&gt;&lt;div&gt;&lt;span style=&quot;color: #808080&quot;&gt;&amp;lt;&lt;/span&gt;&lt;span style=&quot;color: #569cd6&quot;&gt;table&lt;/span&gt; &lt;span style=&quot;color: #9cdcfe&quot;&gt;class&lt;/span&gt;=&lt;span style=&quot;color: #ce9178&quot;&gt;&quot;table&quot;&lt;/span&gt;&lt;span style=&quot;color: #808080&quot;&gt;&amp;gt;&lt;/span&gt;&lt;/div&gt;&lt;div&gt;&amp;nbsp; &amp;nbsp; &lt;span style=&quot;color: #808080&quot;&gt;&amp;lt;&lt;/span&gt;&lt;span style=&quot;color: #569cd6&quot;&gt;thead&lt;/span&gt;&lt;span style=&quot;color: #808080&quot;&gt;&amp;gt;&lt;/span&gt;&lt;/div&gt;&lt;div&gt;&amp;nbsp; &amp;nbsp; &amp;nbsp; &lt;span style=&quot;color: #808080&quot;&gt;&amp;lt;&lt;/span&gt;&lt;span style=&quot;color: #569cd6&quot;&gt;tr&lt;/span&gt;&lt;span style=&quot;color: #808080&quot;&gt;&amp;gt;&lt;/span&gt;&lt;/div&gt;&lt;div&gt;&amp;nbsp; &amp;nbsp; &amp;nbsp; &amp;nbsp; &lt;span style=&quot;color: #808080&quot;&gt;&amp;lt;&lt;/span&gt;&lt;span style=&quot;color: #569cd6&quot;&gt;th&lt;/span&gt; &lt;span style=&quot;color: #9cdcfe&quot;&gt;scope&lt;/span&gt;=&lt;span style=&quot;color: #ce9178&quot;&gt;&quot;col&quot;&lt;/span&gt;&lt;span style=&quot;color: #808080&quot;&gt;&amp;gt;&lt;/span&gt;#&lt;span style=&quot;color: #808080&quot;&gt;&amp;lt;/&lt;/span&gt;&lt;span style=&quot;color: #569cd6&quot;&gt;th&lt;/span&gt;&lt;span style=&quot;color: #808080&quot;&gt;&amp;gt;&lt;/span&gt;&lt;/div&gt;&lt;div&gt;&amp;nbsp; &amp;nbsp; &amp;nbsp; &amp;nbsp; &lt;span style=&quot;color: #808080&quot;&gt;&amp;lt;&lt;/span&gt;&lt;span style=&quot;color: #569cd6&quot;&gt;th&lt;/span&gt; &lt;span style=&quot;color: #9cdcfe&quot;&gt;scope&lt;/span&gt;=&lt;span style=&quot;color: #ce9178&quot;&gt;&quot;col&quot;&lt;/span&gt;&lt;span style=&quot;color: #808080&quot;&gt;&amp;gt;&lt;/span&gt;Name&lt;span style=&quot;color: #808080&quot;&gt;&amp;lt;/&lt;/span&gt;&lt;span style=&quot;color: #569cd6&quot;&gt;th&lt;/span&gt;&lt;span style=&quot;color: #808080&quot;&gt;&amp;gt;&lt;/span&gt;&lt;/div&gt;&lt;div&gt;&amp;nbsp; &amp;nbsp; &amp;nbsp; &amp;nbsp; &lt;span style=&quot;color: #808080&quot;&gt;&amp;lt;&lt;/span&gt;&lt;span style=&quot;color: #569cd6&quot;&gt;th&lt;/span&gt; &lt;span style=&quot;color: #9cdcfe&quot;&gt;scope&lt;/span&gt;=&lt;span style=&quot;color: #ce9178&quot;&gt;&quot;col&quot;&lt;/span&gt;&lt;span style=&quot;color: #808080&quot;&gt;&amp;gt;&lt;/span&gt;Model&lt;span style=&quot;color: #808080&quot;&gt;&amp;lt;/&lt;/span&gt;&lt;span style=&quot;color: #569cd6&quot;&gt;th&lt;/span&gt;&lt;span style=&quot;color: #808080&quot;&gt;&amp;gt;&lt;/span&gt;&lt;/div&gt;&lt;div&gt;&amp;nbsp; &amp;nbsp; &amp;nbsp; &amp;nbsp; &lt;span style=&quot;color: #808080&quot;&gt;&amp;lt;&lt;/span&gt;&lt;span style=&quot;color: #569cd6&quot;&gt;th&lt;/span&gt; &lt;span style=&quot;color: #9cdcfe&quot;&gt;scope&lt;/span&gt;=&lt;span style=&quot;color: #ce9178&quot;&gt;&quot;col&quot;&lt;/span&gt;&lt;span style=&quot;color: #808080&quot;&gt;&amp;gt;&lt;/span&gt;Modifica&lt;span style=&quot;color: #808080&quot;&gt;&amp;lt;/&lt;/span&gt;&lt;span style=&quot;color: #569cd6&quot;&gt;th&lt;/span&gt;&lt;span style=&quot;color: #808080&quot;&gt;&amp;gt;&lt;/span&gt;&lt;/div&gt;&lt;div&gt;&amp;nbsp; &amp;nbsp; &amp;nbsp; &amp;nbsp; &lt;span style=&quot;color: #808080&quot;&gt;&amp;lt;&lt;/span&gt;&lt;span style=&quot;color: #569cd6&quot;&gt;th&lt;/span&gt; &lt;span style=&quot;color: #9cdcfe&quot;&gt;scope&lt;/span&gt;=&lt;span style=&quot;color: #ce9178&quot;&gt;&quot;col&quot;&lt;/span&gt;&lt;span style=&quot;color: #808080&quot;&gt;&amp;gt;&lt;/span&gt;Disponibile&lt;span style=&quot;color: #808080&quot;&gt;&amp;lt;/&lt;/span&gt;&lt;span style=&quot;color: #569cd6&quot;&gt;th&lt;/span&gt;&lt;span style=&quot;color: #808080&quot;&gt;&amp;gt;&lt;/span&gt;&lt;/div&gt;&lt;div&gt;&amp;nbsp; &amp;nbsp; &amp;nbsp; &lt;span style=&quot;color: #808080&quot;&gt;&amp;lt;/&lt;/span&gt;&lt;span style=&quot;color: #569cd6&quot;&gt;tr&lt;/span&gt;&lt;span style=&quot;color: #808080&quot;&gt;&amp;gt;&lt;/span&gt;&lt;/div&gt;&lt;div&gt;&amp;nbsp; &amp;nbsp; &lt;span style=&quot;color: #808080&quot;&gt;&amp;lt;/&lt;/span&gt;&lt;span style=&quot;color: #569cd6&quot;&gt;thead&lt;/span&gt;&lt;span style=&quot;color: #808080&quot;&gt;&amp;gt;&lt;/span&gt;&lt;/div&gt;&lt;div&gt;&amp;nbsp; &amp;nbsp; &lt;span style=&quot;color: #808080&quot;&gt;&amp;lt;&lt;/span&gt;&lt;span style=&quot;color: #569cd6&quot;&gt;tbody&lt;/span&gt;&lt;span style=&quot;color: #808080&quot;&gt;&amp;gt;&lt;/span&gt;&lt;/div&gt;&lt;div&gt;&amp;nbsp; &amp;nbsp; &lt;span style=&quot;color: #569cd6&quot;&gt;@foreach &lt;/span&gt;(&lt;span style=&quot;color: #9cdcfe&quot;&gt;$cars&lt;/span&gt; as &lt;span style=&quot;color: #9cdcfe&quot;&gt;$car&lt;/span&gt;)&lt;/div&gt;&lt;div&gt;&amp;nbsp; &amp;nbsp; &lt;span style=&quot;color: #808080&quot;&gt;&amp;lt;&lt;/span&gt;&lt;span style=&quot;color: #569cd6&quot;&gt;tr&lt;/span&gt;&lt;span style=&quot;color: #808080&quot;&gt;&amp;gt;&lt;/span&gt;&lt;/div&gt;&lt;div&gt;&amp;nbsp; &amp;nbsp; &amp;nbsp; &lt;span style=&quot;color: #808080&quot;&gt;&amp;lt;&lt;/span&gt;&lt;span style=&quot;color: #569cd6&quot;&gt;td&lt;/span&gt;&lt;span style=&quot;color: #808080&quot;&gt;&amp;gt;&lt;/span&gt; &lt;span style=&quot;color: #808080&quot;&gt;&amp;lt;&lt;/span&gt;&lt;span style=&quot;color: #569cd6&quot;&gt;a&lt;/span&gt; &lt;span style=&quot;color: #9cdcfe&quot;&gt;href&lt;/span&gt;=&lt;span style=&quot;color: #ce9178&quot;&gt;&quot;&lt;/span&gt;&lt;span style=&quot;color: #dcdcaa&quot;&gt;{{&lt;/span&gt;&lt;span style=&quot;color: #dcdcaa&quot;&gt;route&lt;/span&gt;&lt;span style=&quot;color: #ce9178&quot;&gt;('admin.cars.show', &lt;/span&gt;&lt;span style=&quot;color: #9cdcfe&quot;&gt;$car&lt;/span&gt;-&amp;gt;&lt;span style=&quot;color: #9cdcfe&quot;&gt;id&lt;/span&gt;&lt;span style=&quot;color: #ce9178&quot;&gt;)&lt;/span&gt;&lt;span style=&quot;color: #dcdcaa&quot;&gt;}}&lt;/span&gt;&lt;span style=&quot;color: #ce9178&quot;&gt;&quot;&lt;/span&gt;&lt;span style=&quot;color: #808080&quot;&gt;&amp;gt;&lt;/span&gt;&lt;span style=&quot;color: #dcdcaa&quot;&gt;{{&lt;/span&gt;&lt;span style=&quot;color: #9cdcfe&quot;&gt;$car&lt;/span&gt;-&amp;gt;&lt;span style=&quot;color: #9cdcfe&quot;&gt;id&lt;/span&gt;&lt;span style=&quot;color: #dcdcaa&quot;&gt;}}&lt;/span&gt; &lt;span style=&quot;color: #808080&quot;&gt;&amp;lt;/&lt;/span&gt;&lt;span style=&quot;color: #569cd6&quot;&gt;a&lt;/span&gt;&lt;span style=&quot;color: #808080&quot;&gt;&amp;gt;&amp;lt;/&lt;/span&gt;&lt;span style=&quot;color: #569cd6&quot;&gt;td&lt;/span&gt;&lt;span style=&quot;color: #808080&quot;&gt;&amp;gt;&lt;/span&gt;&lt;/div&gt;&lt;div&gt;&amp;nbsp; &amp;nbsp; &amp;nbsp; &lt;span style=&quot;color: #808080&quot;&gt;&amp;lt;&lt;/span&gt;&lt;span style=&quot;color: #569cd6&quot;&gt;td&lt;/span&gt;&lt;span style=&quot;color: #808080&quot;&gt;&amp;gt;&lt;/span&gt; &lt;span style=&quot;color: #808080&quot;&gt;&amp;lt;&lt;/span&gt;&lt;span style=&quot;color: #569cd6&quot;&gt;a&lt;/span&gt; &lt;span style=&quot;color: #9cdcfe&quot;&gt;href&lt;/span&gt;=&lt;span style=&quot;color: #ce9178&quot;&gt;&quot;&lt;/span&gt;&lt;span style=&quot;color: #dcdcaa&quot;&gt;{{&lt;/span&gt;&lt;span style=&quot;color: #dcdcaa&quot;&gt;route&lt;/span&gt;&lt;span style=&quot;color: #ce9178&quot;&gt;('admin.cars.show', &lt;/span&gt;&lt;span style=&quot;color: #9cdcfe&quot;&gt;$car&lt;/span&gt;-&amp;gt;&lt;span style=&quot;color: #9cdcfe&quot;&gt;id&lt;/span&gt;&lt;span style=&quot;color: #ce9178&quot;&gt;)&lt;/span&gt;&lt;span style=&quot;color: #dcdcaa&quot;&gt;}}&lt;/span&gt;&lt;span style=&quot;color: #ce9178&quot;&gt;&quot;&lt;/span&gt;&lt;span style=&quot;color: #808080&quot;&gt;&amp;gt;&lt;/span&gt;&lt;span style=&quot;color: #dcdcaa&quot;&gt;{{&lt;/span&gt;&lt;span style=&quot;color: #9cdcfe&quot;&gt;$car&lt;/span&gt;-&amp;gt;&lt;span style=&quot;color: #9cdcfe&quot;&gt;name&lt;/span&gt;&lt;span style=&quot;color: #dcdcaa&quot;&gt;}}&lt;/span&gt; &lt;span style=&quot;color: #808080&quot;&gt;&amp;lt;/&lt;/span&gt;&lt;span style=&quot;color: #569cd6&quot;&gt;a&lt;/span&gt;&lt;span style=&quot;color: #808080&quot;&gt;&amp;gt;&amp;lt;/&lt;/span&gt;&lt;span style=&quot;color: #569cd6&quot;&gt;td&lt;/span&gt;&lt;span style=&quot;color: #808080&quot;&gt;&amp;gt;&lt;/span&gt;&lt;/div&gt;&lt;div&gt;&amp;nbsp; &amp;nbsp; &amp;nbsp; &lt;span style=&quot;color: #808080&quot;&gt;&amp;lt;&lt;/span&gt;&lt;span style=&quot;color: #569cd6&quot;&gt;td&lt;/span&gt;&lt;span style=&quot;color: #808080&quot;&gt;&amp;gt;&lt;/span&gt; &lt;span style=&quot;color: #808080&quot;&gt;&amp;lt;&lt;/span&gt;&lt;span style=&quot;color: #569cd6&quot;&gt;a&lt;/span&gt; &lt;span style=&quot;color: #9cdcfe&quot;&gt;href&lt;/span&gt;=&lt;span style=&quot;color: #ce9178&quot;&gt;&quot;&lt;/span&gt;&lt;span style=&quot;color: #dcdcaa&quot;&gt;{{&lt;/span&gt;&lt;span style=&quot;color: #dcdcaa&quot;&gt;route&lt;/span&gt;&lt;span style=&quot;color: #ce9178&quot;&gt;('admin.cars.show', &lt;/span&gt;&lt;span style=&quot;color: #9cdcfe&quot;&gt;$car&lt;/span&gt;-&amp;gt;&lt;span style=&quot;color: #9cdcfe&quot;&gt;id&lt;/span&gt;&lt;span style=&quot;color: #ce9178&quot;&gt;)&lt;/span&gt;&lt;span style=&quot;color: #dcdcaa&quot;&gt;}}&lt;/span&gt;&lt;span style=&quot;color: #ce9178&quot;&gt;&quot;&lt;/span&gt;&lt;span style=&quot;color: #808080&quot;&gt;&amp;gt;&lt;/span&gt;&lt;span style=&quot;color: #dcdcaa&quot;&gt;{{&lt;/span&gt;&lt;span style=&quot;color: #9cdcfe&quot;&gt;$car&lt;/span&gt;-&amp;gt;&lt;span style=&quot;color: #9cdcfe&quot;&gt;model&lt;/span&gt;&lt;span style=&quot;color: #dcdcaa&quot;&gt;}}&lt;/span&gt; &lt;span style=&quot;color: #808080&quot;&gt;&amp;lt;/&lt;/span&gt;&lt;span style=&quot;color: #569cd6&quot;&gt;a&lt;/span&gt;&lt;span style=&quot;color: #808080&quot;&gt;&amp;gt;&amp;lt;/&lt;/span&gt;&lt;span style=&quot;color: #569cd6&quot;&gt;td&lt;/span&gt;&lt;span style=&quot;color: #808080&quot;&gt;&amp;gt;&lt;/span&gt;&lt;/div&gt;&lt;div&gt;&amp;nbsp; &amp;nbsp; &amp;nbsp; &lt;span style=&quot;color: #808080&quot;&gt;&amp;lt;&lt;/span&gt;&lt;span style=&quot;color: #569cd6&quot;&gt;td&lt;/span&gt;&lt;span style=&quot;color: #808080&quot;&gt;&amp;gt;&lt;/span&gt; &lt;span style=&quot;color: #808080&quot;&gt;&amp;lt;&lt;/span&gt;&lt;span style=&quot;color: #569cd6&quot;&gt;a&lt;/span&gt; &lt;span style=&quot;color: #9cdcfe&quot;&gt;href&lt;/span&gt;=&lt;span style=&quot;color: #ce9178&quot;&gt;&quot;&lt;/span&gt;&lt;span style=&quot;color: #dcdcaa&quot;&gt;{{&lt;/span&gt;&lt;span style=&quot;color: #dcdcaa&quot;&gt;route&lt;/span&gt;&lt;span style=&quot;color: #ce9178&quot;&gt;('admin.cars.edit', &lt;/span&gt;&lt;span style=&quot;color: #9cdcfe&quot;&gt;$car&lt;/span&gt;-&amp;gt;&lt;span style=&quot;color: #9cdcfe&quot;&gt;id&lt;/span&gt;&lt;span style=&quot;color: #ce9178&quot;&gt;)&lt;/span&gt;&lt;span style=&quot;color: #dcdcaa&quot;&gt;}}&lt;/span&gt;&lt;span style=&quot;color: #ce9178&quot;&gt;&quot;&lt;/span&gt; &lt;span style=&quot;color: #9cdcfe&quot;&gt;class&lt;/span&gt;=&lt;span style=&quot;color: #ce9178&quot;&gt;&quot;btn btn-info&quot;&lt;/span&gt;&lt;span style=&quot;color: #808080&quot;&gt;&amp;gt;&lt;/span&gt;Modifica &lt;span style=&quot;color: #808080&quot;&gt;&amp;lt;/&lt;/span&gt;&lt;span style=&quot;color: #569cd6&quot;&gt;a&lt;/span&gt;&lt;span style=&quot;color: #808080&quot;&gt;&amp;gt;&amp;lt;/&lt;/span&gt;&lt;span style=&quot;color: #569cd6&quot;&gt;td&lt;/span&gt;&lt;span style=&quot;color: #808080&quot;&gt;&amp;gt;&lt;/span&gt;&lt;/div&gt;&lt;div&gt;&amp;nbsp; &amp;nbsp; &amp;nbsp; &lt;span style=&quot;color: #808080&quot;&gt;&amp;lt;&lt;/span&gt;&lt;span style=&quot;color: #569cd6&quot;&gt;td&lt;/span&gt;&lt;span style=&quot;color: #808080&quot;&gt;&amp;gt;&lt;/span&gt;&lt;span style=&quot;color: #dcdcaa&quot;&gt;{{&lt;/span&gt;&lt;span style=&quot;color: #9cdcfe&quot;&gt;$car&lt;/span&gt;-&amp;gt;&lt;span style=&quot;color: #9cdcfe&quot;&gt;available&lt;/span&gt; ? &lt;span style=&quot;color: #ce9178&quot;&gt;'si'&lt;/span&gt; : &lt;span style=&quot;color: #ce9178&quot;&gt;'no'&lt;/span&gt;&lt;span style=&quot;color: #dcdcaa&quot;&gt;}}&lt;/span&gt;&lt;span style=&quot;color: #808080&quot;&gt;&amp;lt;/&lt;/span&gt;&lt;span style=&quot;color: #569cd6&quot;&gt;td&lt;/span&gt;&lt;span style=&quot;color: #808080&quot;&gt;&amp;gt;&lt;/span&gt;&lt;/div&gt;&lt;div&gt;&amp;nbsp; &amp;nbsp; &lt;span style=&quot;color: #808080&quot;&gt;&amp;lt;/&lt;/span&gt;&lt;span style=&quot;color: #569cd6&quot;&gt;tr&lt;/span&gt;&lt;span style=&quot;color: #808080&quot;&gt;&amp;gt;&lt;/span&gt;&lt;/div&gt;&lt;div&gt;&amp;nbsp; &amp;nbsp; &lt;span style=&quot;color: #569cd6&quot;&gt;@endforeach&lt;/span&gt;&lt;/div&gt;&lt;div&gt;&amp;nbsp; &amp;nbsp; &amp;nbsp; &lt;/div&gt;&lt;div&gt;&amp;nbsp; &amp;nbsp; &lt;span style=&quot;color: #808080&quot;&gt;&amp;lt;/&lt;/span&gt;&lt;span style=&quot;color: #569cd6&quot;&gt;tbody&lt;/span&gt;&lt;span style=&quot;color: #808080&quot;&gt;&amp;gt;&lt;/span&gt;&lt;/div&gt;&lt;div&gt;&amp;nbsp; &lt;span style=&quot;color: #808080&quot;&gt;&amp;lt;/&lt;/span&gt;&lt;span style=&quot;color: #569cd6&quot;&gt;table&lt;/span&gt;&lt;span style=&quot;color: #808080&quot;&gt;&amp;gt;&lt;/span&gt;&lt;/div&gt;&lt;div&gt;&amp;nbsp; &amp;nbsp; &lt;/div&gt;&lt;div&gt;&lt;span style=&quot;color: #569cd6&quot;&gt;@endsection&lt;/span&gt;&lt;/div&gt;&lt;/div&gt;&lt;/div&gt;" style="text;html=1;strokeColor=default;fillColor=none;spacing=5;spacingTop=-20;whiteSpace=wrap;overflow=hidden;rounded=0;fontSize=16;fontColor=#FFFFFF;container=1;" parent="1" vertex="1">
                    <mxGeometry x="30" y="160" width="710" height="710" as="geometry"/>
                </mxCell>
                <mxCell id="17" value="&lt;div style=&quot;text-align: left ; font-size: 12px&quot;&gt;&lt;span&gt;aggiunger&lt;/span&gt;&lt;font style=&quot;font-size: 12px&quot;&gt;e&lt;/font&gt;&lt;font style=&quot;font-size: 12px&quot;&gt;&amp;nbsp;action e method al form alla rotta di salvataggio store&lt;/font&gt;&lt;/div&gt;&lt;div style=&quot;text-align: left ; font-size: 12px&quot;&gt;&lt;font style=&quot;font-size: 12px&quot;&gt;aggiungi il token @csrf&lt;/font&gt;&lt;/div&gt;&lt;div style=&quot;text-align: left ; font-size: 12px&quot;&gt;&lt;font style=&quot;font-size: 12px&quot;&gt;modificare nel laber il for, id, name con i valori giusti&lt;/font&gt;&lt;/div&gt;&lt;div style=&quot;text-align: left ; font-size: 12px&quot;&gt;&lt;font style=&quot;font-size: 12px&quot;&gt;aggiungere funzione old&lt;/font&gt;&lt;/div&gt;" style="text;html=1;strokeColor=#B09500;fillColor=#e3c800;align=center;verticalAlign=middle;whiteSpace=wrap;rounded=0;fontSize=10;fontColor=#000000;" parent="1" vertex="1">
                    <mxGeometry x="1040" y="1400" width="260" height="120" as="geometry"/>
                </mxCell>
                <mxCell id="YnNii3DhfhroFcoP4JHG-32" value="&lt;div style=&quot;text-align: left ; font-size: 10px&quot;&gt;&lt;br&gt;&lt;/div&gt;&lt;div style=&quot;text-align: left ; font-size: 10px&quot;&gt;&lt;b&gt;Abilitare mass assignement nel model:&lt;/b&gt;&lt;/div&gt;&lt;div style=&quot;text-align: left ; font-size: 10px&quot;&gt;&lt;span&gt;//per singoli campi&lt;/span&gt;&lt;br&gt;&lt;/div&gt;&lt;div style=&quot;text-align: left ; font-size: 10px&quot;&gt;protectd $fillable['name', 'description'];&lt;span&gt;&lt;br&gt;&lt;/span&gt;&lt;/div&gt;&lt;div style=&quot;text-align: left ; font-size: 10px&quot;&gt;&lt;br&gt;&lt;/div&gt;&lt;div style=&quot;text-align: left ; font-size: 10px&quot;&gt;//per tutti i campi&lt;/div&gt;&lt;div style=&quot;text-align: left ; font-size: 10px&quot;&gt;protected $guarded=[];&lt;/div&gt;&lt;div style=&quot;text-align: left ; font-size: 10px&quot;&gt;&lt;br&gt;&lt;/div&gt;&lt;div style=&quot;text-align: left ; font-size: 10px&quot;&gt;&lt;b&gt;Specificare nome tabella nel model:&lt;/b&gt;&lt;br&gt;&lt;/div&gt;&lt;div style=&quot;text-align: left ; font-size: 10px&quot;&gt;protected $table='nome_tabella';&lt;/div&gt;&lt;div style=&quot;text-align: left ; font-size: 10px&quot;&gt;&lt;br&gt;&lt;/div&gt;&lt;div style=&quot;text-align: left ; font-size: 10px&quot;&gt;&lt;br&gt;&lt;/div&gt;" style="text;html=1;strokeColor=#B09500;fillColor=#e3c800;align=center;verticalAlign=middle;whiteSpace=wrap;rounded=0;fontSize=10;fontColor=#000000;" parent="1" vertex="1">
                    <mxGeometry x="1111" y="1634" width="260" height="120" as="geometry"/>
                </mxCell>
                <mxCell id="18" value="&lt;h1&gt;show&lt;/h1&gt;&lt;div&gt;&lt;div style=&quot;color: rgb(212 , 212 , 212) ; background-color: rgb(30 , 30 , 30) ; font-family: &amp;#34;consolas&amp;#34; , &amp;#34;courier new&amp;#34; , monospace ; font-size: 14px ; line-height: 19px&quot;&gt;&lt;div&gt;&lt;span style=&quot;color: #569cd6&quot;&gt;@extends&lt;/span&gt;(&lt;span style=&quot;color: #ce9178&quot;&gt;'layouts.admin'&lt;/span&gt;)&lt;/div&gt;&lt;br&gt;&lt;div&gt;&lt;span style=&quot;color: #6a9955&quot;&gt;{{-- @dump($car) --}}&lt;/span&gt;&lt;/div&gt;&lt;br&gt;&lt;div&gt;&lt;span style=&quot;color: #569cd6&quot;&gt;@section&lt;/span&gt;(&lt;span style=&quot;color: #ce9178&quot;&gt;'content'&lt;/span&gt;)&lt;/div&gt;&lt;div&gt;&amp;nbsp; &amp;nbsp; &lt;span style=&quot;color: #808080&quot;&gt;&amp;lt;&lt;/span&gt;&lt;span style=&quot;color: #569cd6&quot;&gt;h1&lt;/span&gt;&lt;span style=&quot;color: #808080&quot;&gt;&amp;gt;&lt;/span&gt;&lt;span style=&quot;color: #dcdcaa&quot;&gt;{{&lt;/span&gt;&lt;span style=&quot;color: #9cdcfe&quot;&gt;$car&lt;/span&gt;-&amp;gt;&lt;span style=&quot;color: #9cdcfe&quot;&gt;name&lt;/span&gt;&lt;span style=&quot;color: #dcdcaa&quot;&gt;}}&lt;/span&gt;&lt;span style=&quot;color: #808080&quot;&gt;&amp;lt;/&lt;/span&gt;&lt;span style=&quot;color: #569cd6&quot;&gt;h1&lt;/span&gt;&lt;span style=&quot;color: #808080&quot;&gt;&amp;gt;&lt;/span&gt;&lt;/div&gt;&lt;div&gt;&amp;nbsp; &amp;nbsp; &lt;span style=&quot;color: #808080&quot;&gt;&amp;lt;&lt;/span&gt;&lt;span style=&quot;color: #569cd6&quot;&gt;h3&lt;/span&gt;&lt;span style=&quot;color: #808080&quot;&gt;&amp;gt;&lt;/span&gt;&lt;span style=&quot;color: #dcdcaa&quot;&gt;{{&lt;/span&gt;&lt;span style=&quot;color: #9cdcfe&quot;&gt;$car&lt;/span&gt;-&amp;gt;&lt;span style=&quot;color: #9cdcfe&quot;&gt;model&lt;/span&gt;&lt;span style=&quot;color: #dcdcaa&quot;&gt;}}&lt;/span&gt;&lt;span style=&quot;color: #808080&quot;&gt;&amp;lt;/&lt;/span&gt;&lt;span style=&quot;color: #569cd6&quot;&gt;h3&lt;/span&gt;&lt;span style=&quot;color: #808080&quot;&gt;&amp;gt;&lt;/span&gt;&lt;/div&gt;&lt;div&gt;&amp;nbsp; &amp;nbsp; &lt;span style=&quot;color: #808080&quot;&gt;&amp;lt;&lt;/span&gt;&lt;span style=&quot;color: #569cd6&quot;&gt;p&lt;/span&gt;&lt;span style=&quot;color: #808080&quot;&gt;&amp;gt;&lt;/span&gt;&lt;span style=&quot;color: #dcdcaa&quot;&gt;{{&lt;/span&gt;&lt;span style=&quot;color: #9cdcfe&quot;&gt;$car&lt;/span&gt;-&amp;gt;&lt;span style=&quot;color: #9cdcfe&quot;&gt;description&lt;/span&gt;&lt;span style=&quot;color: #dcdcaa&quot;&gt;}}&lt;/span&gt;&lt;span style=&quot;color: #808080&quot;&gt;&amp;lt;/&lt;/span&gt;&lt;span style=&quot;color: #569cd6&quot;&gt;p&lt;/span&gt;&lt;span style=&quot;color: #808080&quot;&gt;&amp;gt;&lt;/span&gt;&lt;/div&gt;&lt;div&gt;&amp;nbsp; &amp;nbsp; &lt;span style=&quot;color: #808080&quot;&gt;&amp;lt;&lt;/span&gt;&lt;span style=&quot;color: #569cd6&quot;&gt;h5&lt;/span&gt;&lt;span style=&quot;color: #808080&quot;&gt;&amp;gt;&lt;/span&gt;Disponibile: &lt;span style=&quot;color: #dcdcaa&quot;&gt;{{&lt;/span&gt;&lt;span style=&quot;color: #9cdcfe&quot;&gt;$car&lt;/span&gt;-&amp;gt;&lt;span style=&quot;color: #9cdcfe&quot;&gt;available&lt;/span&gt;&lt;span style=&quot;color: #dcdcaa&quot;&gt;}}&lt;/span&gt;&lt;span style=&quot;color: #808080&quot;&gt;&amp;lt;/&lt;/span&gt;&lt;span style=&quot;color: #569cd6&quot;&gt;h5&lt;/span&gt;&lt;span style=&quot;color: #808080&quot;&gt;&amp;gt;&lt;/span&gt;&lt;/div&gt;&lt;div&gt;&amp;nbsp; &amp;nbsp; &lt;span style=&quot;color: #808080&quot;&gt;&amp;lt;&lt;/span&gt;&lt;span style=&quot;color: #569cd6&quot;&gt;small&lt;/span&gt;&lt;span style=&quot;color: #808080&quot;&gt;&amp;gt;&lt;/span&gt;&lt;span style=&quot;color: #dcdcaa&quot;&gt;{{&lt;/span&gt;&lt;span style=&quot;color: #9cdcfe&quot;&gt;$car&lt;/span&gt;-&amp;gt;&lt;span style=&quot;color: #9cdcfe&quot;&gt;created_at&lt;/span&gt;&lt;span style=&quot;color: #dcdcaa&quot;&gt;}}&lt;/span&gt;&lt;span style=&quot;color: #808080&quot;&gt;&amp;lt;/&lt;/span&gt;&lt;span style=&quot;color: #569cd6&quot;&gt;small&lt;/span&gt;&lt;span style=&quot;color: #808080&quot;&gt;&amp;gt;&lt;/span&gt;&lt;/div&gt;&lt;div&gt;&lt;span style=&quot;color: #569cd6&quot;&gt;@endsection&lt;/span&gt;&lt;/div&gt;&lt;/div&gt;&lt;/div&gt;" style="text;html=1;strokeColor=default;fillColor=none;spacing=5;spacingTop=-20;whiteSpace=wrap;overflow=hidden;rounded=0;fontSize=16;fontColor=#FFFFFF;container=1;" vertex="1" parent="1">
                    <mxGeometry x="30" y="950" width="360" height="290" as="geometry"/>
                </mxCell>
                <mxCell id="19" value="&lt;h1&gt;&lt;span style=&quot;font-size: 20px&quot;&gt;create&lt;/span&gt;&lt;/h1&gt;&lt;div&gt;&lt;div style=&quot;color: rgb(212 , 212 , 212) ; background-color: rgb(30 , 30 , 30) ; font-family: &amp;#34;consolas&amp;#34; , &amp;#34;courier new&amp;#34; , monospace ; font-size: 14px ; line-height: 19px&quot;&gt;&lt;div&gt;&lt;span style=&quot;color: #569cd6&quot;&gt;@extends&lt;/span&gt;(&lt;span style=&quot;color: #ce9178&quot;&gt;'layouts.admin'&lt;/span&gt;)&lt;/div&gt;&lt;br&gt;&lt;div&gt;&lt;span style=&quot;color: #569cd6&quot;&gt;@section&lt;/span&gt;(&lt;span style=&quot;color: #ce9178&quot;&gt;'content'&lt;/span&gt;)&lt;/div&gt;&lt;div&gt;&lt;span style=&quot;color: #808080&quot;&gt;&amp;lt;&lt;/span&gt;&lt;span style=&quot;color: #569cd6&quot;&gt;form&lt;/span&gt; &lt;span style=&quot;color: #9cdcfe&quot;&gt;action&lt;/span&gt;=&lt;span style=&quot;color: #dcdcaa&quot;&gt;{{&lt;/span&gt;&lt;span style=&quot;color: #dcdcaa&quot;&gt;route&lt;/span&gt;(&lt;span style=&quot;color: #ce9178&quot;&gt;'admin.cars.store'&lt;/span&gt;)&lt;span style=&quot;color: #dcdcaa&quot;&gt;}}&lt;/span&gt; &lt;span style=&quot;color: #9cdcfe&quot;&gt;method&lt;/span&gt;=&lt;span style=&quot;color: #ce9178&quot;&gt;&quot;POST&quot;&lt;/span&gt;&lt;span style=&quot;color: #808080&quot;&gt;&amp;gt;&lt;/span&gt;&lt;/div&gt;&lt;div&gt;&amp;nbsp; &amp;nbsp; &lt;span style=&quot;color: #569cd6&quot;&gt;@csrf&lt;/span&gt;&lt;/div&gt;&lt;div&gt;&amp;nbsp; &amp;nbsp; &lt;span style=&quot;color: #808080&quot;&gt;&amp;lt;&lt;/span&gt;&lt;span style=&quot;color: #569cd6&quot;&gt;div&lt;/span&gt; &lt;span style=&quot;color: #9cdcfe&quot;&gt;class&lt;/span&gt;=&lt;span style=&quot;color: #ce9178&quot;&gt;&quot;mb-3&quot;&lt;/span&gt;&lt;span style=&quot;color: #808080&quot;&gt;&amp;gt;&lt;/span&gt;&lt;/div&gt;&lt;div&gt;&amp;nbsp; &amp;nbsp; &amp;nbsp; &lt;span style=&quot;color: #808080&quot;&gt;&amp;lt;&lt;/span&gt;&lt;span style=&quot;color: #569cd6&quot;&gt;label&lt;/span&gt; &lt;span style=&quot;color: #9cdcfe&quot;&gt;for&lt;/span&gt;=&lt;span style=&quot;color: #ce9178&quot;&gt;&quot;name&quot;&lt;/span&gt; &lt;span style=&quot;color: #9cdcfe&quot;&gt;class&lt;/span&gt;=&lt;span style=&quot;color: #ce9178&quot;&gt;&quot;form-label&quot;&lt;/span&gt;&lt;span style=&quot;color: #808080&quot;&gt;&amp;gt;&lt;/span&gt;Name&lt;span style=&quot;color: #808080&quot;&gt;&amp;lt;/&lt;/span&gt;&lt;span style=&quot;color: #569cd6&quot;&gt;label&lt;/span&gt;&lt;span style=&quot;color: #808080&quot;&gt;&amp;gt;&lt;/span&gt;&lt;/div&gt;&lt;div&gt;&amp;nbsp; &amp;nbsp; &amp;nbsp; &lt;span style=&quot;color: #808080&quot;&gt;&amp;lt;&lt;/span&gt;&lt;span style=&quot;color: #569cd6&quot;&gt;input&lt;/span&gt; &lt;span style=&quot;color: #9cdcfe&quot;&gt;type&lt;/span&gt;=&lt;span style=&quot;color: #ce9178&quot;&gt;&quot;text&quot;&lt;/span&gt; &lt;span style=&quot;color: #9cdcfe&quot;&gt;class&lt;/span&gt;=&lt;span style=&quot;color: #ce9178&quot;&gt;&quot;form-control&quot;&lt;/span&gt; &lt;span style=&quot;color: #9cdcfe&quot;&gt;id&lt;/span&gt;=&lt;span style=&quot;color: #ce9178&quot;&gt;&quot;name&quot;&lt;/span&gt; &lt;span style=&quot;color: #9cdcfe&quot;&gt;name&lt;/span&gt;=&lt;span style=&quot;color: #ce9178&quot;&gt;&quot;name&quot;&lt;/span&gt; &lt;span style=&quot;color: #9cdcfe&quot;&gt;value&lt;/span&gt;=&lt;span style=&quot;color: #ce9178&quot;&gt;&quot;&lt;/span&gt;&lt;span style=&quot;color: #dcdcaa&quot;&gt;{{&lt;/span&gt;&lt;span style=&quot;color: #dcdcaa&quot;&gt;old&lt;/span&gt;&lt;span style=&quot;color: #ce9178&quot;&gt;('name')&lt;/span&gt;&lt;span style=&quot;color: #dcdcaa&quot;&gt;}}&lt;/span&gt;&lt;span style=&quot;color: #ce9178&quot;&gt;&quot;&lt;/span&gt; &lt;span style=&quot;color: #9cdcfe&quot;&gt;placeholder&lt;/span&gt;=&lt;span style=&quot;color: #ce9178&quot;&gt;&quot;inserisci name&quot;&lt;/span&gt;&lt;span style=&quot;color: #808080&quot;&gt;&amp;gt;&lt;/span&gt;&lt;/div&gt;&lt;div&gt;&amp;nbsp; &amp;nbsp; &amp;nbsp; &lt;/div&gt;&lt;div&gt;&amp;nbsp; &amp;nbsp; &lt;span style=&quot;color: #808080&quot;&gt;&amp;lt;/&lt;/span&gt;&lt;span style=&quot;color: #569cd6&quot;&gt;div&lt;/span&gt;&lt;span style=&quot;color: #808080&quot;&gt;&amp;gt;&lt;/span&gt;&lt;/div&gt;&lt;div&gt;&amp;nbsp; &amp;nbsp; &lt;span style=&quot;color: #808080&quot;&gt;&amp;lt;&lt;/span&gt;&lt;span style=&quot;color: #569cd6&quot;&gt;div&lt;/span&gt; &lt;span style=&quot;color: #9cdcfe&quot;&gt;class&lt;/span&gt;=&lt;span style=&quot;color: #ce9178&quot;&gt;&quot;mb-3&quot;&lt;/span&gt;&lt;span style=&quot;color: #808080&quot;&gt;&amp;gt;&lt;/span&gt;&lt;/div&gt;&lt;div&gt;&amp;nbsp; &amp;nbsp; &amp;nbsp; &lt;span style=&quot;color: #808080&quot;&gt;&amp;lt;&lt;/span&gt;&lt;span style=&quot;color: #569cd6&quot;&gt;label&lt;/span&gt; &lt;span style=&quot;color: #9cdcfe&quot;&gt;for&lt;/span&gt;=&lt;span style=&quot;color: #ce9178&quot;&gt;&quot;model&quot;&lt;/span&gt; &lt;span style=&quot;color: #9cdcfe&quot;&gt;class&lt;/span&gt;=&lt;span style=&quot;color: #ce9178&quot;&gt;&quot;form-label&quot;&lt;/span&gt;&lt;span style=&quot;color: #808080&quot;&gt;&amp;gt;&lt;/span&gt;Model&lt;span style=&quot;color: #808080&quot;&gt;&amp;lt;/&lt;/span&gt;&lt;span style=&quot;color: #569cd6&quot;&gt;label&lt;/span&gt;&lt;span style=&quot;color: #808080&quot;&gt;&amp;gt;&lt;/span&gt;&lt;/div&gt;&lt;div&gt;&amp;nbsp; &amp;nbsp; &amp;nbsp; &lt;span style=&quot;color: #808080&quot;&gt;&amp;lt;&lt;/span&gt;&lt;span style=&quot;color: #569cd6&quot;&gt;input&lt;/span&gt; &lt;span style=&quot;color: #9cdcfe&quot;&gt;type&lt;/span&gt;=&lt;span style=&quot;color: #ce9178&quot;&gt;&quot;text&quot;&lt;/span&gt; &lt;span style=&quot;color: #9cdcfe&quot;&gt;class&lt;/span&gt;=&lt;span style=&quot;color: #ce9178&quot;&gt;&quot;form-control&quot;&lt;/span&gt; &lt;span style=&quot;color: #9cdcfe&quot;&gt;id&lt;/span&gt;=&lt;span style=&quot;color: #ce9178&quot;&gt;&quot;model&quot;&lt;/span&gt; &lt;span style=&quot;color: #9cdcfe&quot;&gt;name&lt;/span&gt;=&lt;span style=&quot;color: #ce9178&quot;&gt;&quot;model&quot;&lt;/span&gt; &lt;span style=&quot;color: #9cdcfe&quot;&gt;value&lt;/span&gt;=&lt;span style=&quot;color: #ce9178&quot;&gt;&quot;&lt;/span&gt;&lt;span style=&quot;color: #dcdcaa&quot;&gt;{{&lt;/span&gt;&lt;span style=&quot;color: #dcdcaa&quot;&gt;old&lt;/span&gt;&lt;span style=&quot;color: #ce9178&quot;&gt;('model')&lt;/span&gt;&lt;span style=&quot;color: #dcdcaa&quot;&gt;}}&lt;/span&gt;&lt;span style=&quot;color: #ce9178&quot;&gt;&quot;&lt;/span&gt; &lt;span style=&quot;color: #9cdcfe&quot;&gt;placeholder&lt;/span&gt;=&lt;span style=&quot;color: #ce9178&quot;&gt;&quot;inserisci model&quot;&lt;/span&gt;&lt;span style=&quot;color: #808080&quot;&gt;&amp;gt;&lt;/span&gt;&lt;/div&gt;&lt;div&gt;&amp;nbsp; &amp;nbsp; &lt;span style=&quot;color: #808080&quot;&gt;&amp;lt;/&lt;/span&gt;&lt;span style=&quot;color: #569cd6&quot;&gt;div&lt;/span&gt;&lt;span style=&quot;color: #808080&quot;&gt;&amp;gt;&lt;/span&gt;&lt;/div&gt;&lt;div&gt;&amp;nbsp; &amp;nbsp; &lt;span style=&quot;color: #808080&quot;&gt;&amp;lt;&lt;/span&gt;&lt;span style=&quot;color: #569cd6&quot;&gt;div&lt;/span&gt; &lt;span style=&quot;color: #9cdcfe&quot;&gt;class&lt;/span&gt;=&lt;span style=&quot;color: #ce9178&quot;&gt;&quot;mb-3&quot;&lt;/span&gt;&lt;span style=&quot;color: #808080&quot;&gt;&amp;gt;&lt;/span&gt;&lt;/div&gt;&lt;div&gt;&amp;nbsp; &amp;nbsp; &amp;nbsp; &amp;nbsp; &lt;span style=&quot;color: #808080&quot;&gt;&amp;lt;&lt;/span&gt;&lt;span style=&quot;color: #569cd6&quot;&gt;label&lt;/span&gt; &lt;span style=&quot;color: #9cdcfe&quot;&gt;for&lt;/span&gt;=&lt;span style=&quot;color: #ce9178&quot;&gt;&quot;description&quot;&lt;/span&gt; &lt;span style=&quot;color: #9cdcfe&quot;&gt;class&lt;/span&gt;=&lt;span style=&quot;color: #ce9178&quot;&gt;&quot;form-label&quot;&lt;/span&gt;&lt;span style=&quot;color: #808080&quot;&gt;&amp;gt;&lt;/span&gt;description&lt;span style=&quot;color: #808080&quot;&gt;&amp;lt;/&lt;/span&gt;&lt;span style=&quot;color: #569cd6&quot;&gt;label&lt;/span&gt;&lt;span style=&quot;color: #808080&quot;&gt;&amp;gt;&lt;/span&gt;&lt;/div&gt;&lt;div&gt;&amp;nbsp; &amp;nbsp; &amp;nbsp; &amp;nbsp; &lt;span style=&quot;color: #808080&quot;&gt;&amp;lt;&lt;/span&gt;&lt;span style=&quot;color: #569cd6&quot;&gt;textarea&lt;/span&gt; &lt;span style=&quot;color: #9cdcfe&quot;&gt;name&lt;/span&gt;=&lt;span style=&quot;color: #ce9178&quot;&gt;&quot;description&quot;&lt;/span&gt; &lt;span style=&quot;color: #9cdcfe&quot;&gt;id&lt;/span&gt;=&lt;span style=&quot;color: #ce9178&quot;&gt;&quot;description&quot;&lt;/span&gt; &lt;span style=&quot;color: #9cdcfe&quot;&gt;cols&lt;/span&gt;=&lt;span style=&quot;color: #ce9178&quot;&gt;&quot;30&quot;&lt;/span&gt; &lt;span style=&quot;color: #9cdcfe&quot;&gt;rows&lt;/span&gt;=&lt;span style=&quot;color: #ce9178&quot;&gt;&quot;10&quot;&lt;/span&gt;&lt;span style=&quot;color: #808080&quot;&gt;&amp;gt;&lt;/span&gt;&lt;span style=&quot;color: #dcdcaa&quot;&gt;{{&lt;/span&gt;&lt;span style=&quot;color: #dcdcaa&quot;&gt;old&lt;/span&gt;(&lt;span style=&quot;color: #ce9178&quot;&gt;'description'&lt;/span&gt;)&lt;span style=&quot;color: #dcdcaa&quot;&gt;}}&lt;/span&gt;&lt;span style=&quot;color: #808080&quot;&gt;&amp;lt;/&lt;/span&gt;&lt;span style=&quot;color: #569cd6&quot;&gt;textarea&lt;/span&gt;&lt;span style=&quot;color: #808080&quot;&gt;&amp;gt;&lt;/span&gt;&lt;/div&gt;&lt;div&gt;&amp;nbsp; &amp;nbsp; &amp;nbsp; &lt;span style=&quot;color: #808080&quot;&gt;&amp;lt;/&lt;/span&gt;&lt;span style=&quot;color: #569cd6&quot;&gt;div&lt;/span&gt;&lt;span style=&quot;color: #808080&quot;&gt;&amp;gt;&lt;/span&gt;&lt;/div&gt;&lt;div&gt;&amp;nbsp; &amp;nbsp; &lt;span style=&quot;color: #808080&quot;&gt;&amp;lt;&lt;/span&gt;&lt;span style=&quot;color: #569cd6&quot;&gt;div&lt;/span&gt; &lt;span style=&quot;color: #9cdcfe&quot;&gt;class&lt;/span&gt;=&lt;span style=&quot;color: #ce9178&quot;&gt;&quot;mb-3 form-check&quot;&lt;/span&gt;&lt;span style=&quot;color: #808080&quot;&gt;&amp;gt;&lt;/span&gt;&lt;/div&gt;&lt;div&gt;&amp;nbsp; &amp;nbsp; &amp;nbsp; &lt;span style=&quot;color: #808080&quot;&gt;&amp;lt;&lt;/span&gt;&lt;span style=&quot;color: #569cd6&quot;&gt;input&lt;/span&gt; &lt;span style=&quot;color: #9cdcfe&quot;&gt;type&lt;/span&gt;=&lt;span style=&quot;color: #ce9178&quot;&gt;&quot;checkbox&quot;&lt;/span&gt; &lt;span style=&quot;color: #9cdcfe&quot;&gt;class&lt;/span&gt;=&lt;span style=&quot;color: #ce9178&quot;&gt;&quot;form-check-input&quot;&lt;/span&gt; &lt;span style=&quot;color: #9cdcfe&quot;&gt;id&lt;/span&gt;=&lt;span style=&quot;color: #ce9178&quot;&gt;&quot;available&quot;&lt;/span&gt; &lt;span style=&quot;color: #9cdcfe&quot;&gt;name&lt;/span&gt;=&lt;span style=&quot;color: #ce9178&quot;&gt;&quot;available&quot;&lt;/span&gt; &lt;span style=&quot;color: #dcdcaa&quot;&gt;{{&lt;/span&gt;&lt;span style=&quot;color: #dcdcaa&quot;&gt;old&lt;/span&gt;(&lt;span style=&quot;color: #ce9178&quot;&gt;'available'&lt;/span&gt;) ? &lt;span style=&quot;color: #ce9178&quot;&gt;'checked'&lt;/span&gt; : &lt;span style=&quot;color: #ce9178&quot;&gt;''&lt;/span&gt;&lt;span style=&quot;color: #dcdcaa&quot;&gt;}}&lt;/span&gt;&lt;span style=&quot;color: #808080&quot;&gt;&amp;gt;&lt;/span&gt;&lt;/div&gt;&lt;div&gt;&amp;nbsp; &amp;nbsp; &amp;nbsp; &lt;span style=&quot;color: #808080&quot;&gt;&amp;lt;&lt;/span&gt;&lt;span style=&quot;color: #569cd6&quot;&gt;label&lt;/span&gt; &lt;span style=&quot;color: #9cdcfe&quot;&gt;class&lt;/span&gt;=&lt;span style=&quot;color: #ce9178&quot;&gt;&quot;form-check-label&quot;&lt;/span&gt; &lt;span style=&quot;color: #9cdcfe&quot;&gt;for&lt;/span&gt;=&lt;span style=&quot;color: #ce9178&quot;&gt;&quot;available&quot;&lt;/span&gt;&lt;span style=&quot;color: #808080&quot;&gt;&amp;gt;&lt;/span&gt;Disponibile: &lt;span style=&quot;color: #808080&quot;&gt;&amp;lt;/&lt;/span&gt;&lt;span style=&quot;color: #569cd6&quot;&gt;label&lt;/span&gt;&lt;span style=&quot;color: #808080&quot;&gt;&amp;gt;&lt;/span&gt;&lt;/div&gt;&lt;div&gt;&amp;nbsp; &amp;nbsp; &lt;span style=&quot;color: #808080&quot;&gt;&amp;lt;/&lt;/span&gt;&lt;span style=&quot;color: #569cd6&quot;&gt;div&lt;/span&gt;&lt;span style=&quot;color: #808080&quot;&gt;&amp;gt;&lt;/span&gt;&lt;/div&gt;&lt;div&gt;&amp;nbsp; &amp;nbsp; &lt;span style=&quot;color: #808080&quot;&gt;&amp;lt;&lt;/span&gt;&lt;span style=&quot;color: #569cd6&quot;&gt;button&lt;/span&gt; &lt;span style=&quot;color: #9cdcfe&quot;&gt;type&lt;/span&gt;=&lt;span style=&quot;color: #ce9178&quot;&gt;&quot;submit&quot;&lt;/span&gt; &lt;span style=&quot;color: #9cdcfe&quot;&gt;class&lt;/span&gt;=&lt;span style=&quot;color: #ce9178&quot;&gt;&quot;btn btn-primary&quot;&lt;/span&gt;&lt;span style=&quot;color: #808080&quot;&gt;&amp;gt;&lt;/span&gt;Submit&lt;span style=&quot;color: #808080&quot;&gt;&amp;lt;/&lt;/span&gt;&lt;span style=&quot;color: #569cd6&quot;&gt;button&lt;/span&gt;&lt;span style=&quot;color: #808080&quot;&gt;&amp;gt;&lt;/span&gt;&lt;/div&gt;&lt;div&gt;&amp;nbsp; &lt;span style=&quot;color: #808080&quot;&gt;&amp;lt;/&lt;/span&gt;&lt;span style=&quot;color: #569cd6&quot;&gt;form&lt;/span&gt;&lt;span style=&quot;color: #808080&quot;&gt;&amp;gt;&lt;/span&gt;&lt;/div&gt;&lt;div&gt;&lt;span style=&quot;color: #569cd6&quot;&gt;@endsection&lt;/span&gt;&lt;/div&gt;&lt;/div&gt;&lt;/div&gt;" style="text;html=1;strokeColor=default;fillColor=none;spacing=5;spacingTop=-20;whiteSpace=wrap;overflow=hidden;rounded=0;fontSize=16;fontColor=#FFFFFF;container=1;" vertex="1" parent="1">
                    <mxGeometry x="30" y="1330" width="970" height="560" as="geometry"/>
                </mxCell>
            </root>
        </mxGraphModel>
    </diagram>
    <diagram id="BvBdxhd0rVTqoUJPIA4A" name="Page-2">
        <mxGraphModel dx="1238" dy="645" grid="1" gridSize="10" guides="1" tooltips="1" connect="1" arrows="1" fold="1" page="1" pageScale="1" pageWidth="827" pageHeight="1169" math="0" shadow="0">
            <root>
                <mxCell id="dGOpuBiseX3lURQI40ha-0"/>
                <mxCell id="dGOpuBiseX3lURQI40ha-1" parent="dGOpuBiseX3lURQI40ha-0"/>
            </root>
        </mxGraphModel>
    </diagram>
</mxfile>